<svg id="visual" viewBox="0 0 900 600" width="900" height="600" xmlns="http://www.w3.org/2000/svg" xmlns:xlink="http://www.w3.org/1999/xlink" version="1.1"><rect x="0" y="0" width="900" height="600" fill="#DEDFE3"></rect><defs><linearGradient id="grad1_0" x1="33.3%" y1="100%" x2="100%" y2="0%"><stop offset="20%" stop-color="#dedfe3" stop-opacity="1"></stop><stop offset="80%" stop-color="#dedfe3" stop-opacity="1"></stop></linearGradient></defs><defs><linearGradient id="grad2_0" x1="0%" y1="100%" x2="66.7%" y2="0%"><stop offset="20%" stop-color="#dedfe3" stop-opacity="1"></stop><stop offset="80%" stop-color="#dedfe3" stop-opacity="1"></stop></linearGradient></defs><g transform="translate(900, 600)"><path d="M-270.4 0C-265.9 -51.7 -261.3 -103.4 -234.2 -135.2C-207 -167.1 -157.3 -179.1 -114.5 -198.3C-71.7 -217.6 -35.9 -244 0 -270.4L0 0Z" fill="#3C6EE1"></path></g><g transform="translate(0, 0)"><path d="M270.4 0C265.7 51.4 261.1 102.9 234.2 135.2C207.3 167.5 158.2 180.7 115.5 200.1C72.8 219.4 36.4 244.9 0 270.4L0 0Z" fill="#3C6EE1"></path></g></svg>